<svg width="194" height="37" viewBox="0 0 194 37" fill="none" xmlns="http://www.w3.org/2000/svg">
<g id="logo-brand-bright 1" clip-path="url(#clip0_517_100)">
<path id="Vector" d="M39.1459 21.1399H33.3332L23.1672 1.54712H28.4045L36.3188 17.0914L44.4833 1.54712H49.3369L39.1459 21.1317V21.1399Z" fill="white" stroke="white" stroke-width="1.41357" stroke-miterlimit="10"/>
<path id="Vector_2" d="M81.7947 5.46405V21.1317H76.916V5.46405H68.2178V1.54712H90.5013V5.46405H81.803H81.7947Z" fill="white" stroke="white" stroke-width="1.41357" stroke-miterlimit="10"/>
<path id="Vector_3" d="M113.994 10.6564C113.36 11.6768 112.201 12.5491 110.783 12.7794L116.73 21.1399H111.317L106.03 13.5037H98.3157V21.1399H93.5872V1.54712H107.723C110.733 1.54712 112.702 2.39469 113.744 3.71954C114.453 4.59179 114.803 5.71914 114.803 7.26617C114.803 8.68976 114.528 9.85824 113.994 10.6564ZM109.799 6.31162C109.366 5.68623 108.64 5.38999 107.223 5.38999H98.3491V9.73482H107.506C108.799 9.73482 109.508 9.46327 109.808 8.9613C110.058 8.55809 110.133 8.03968 110.133 7.63647C110.133 7.15919 110.058 6.64077 109.808 6.31162H109.799Z" fill="white" stroke="white" stroke-width="1.41357" stroke-miterlimit="10"/>
<path id="Vector_4" d="M159.986 21.14H147.186V1.26733H159.837C164.457 1.26733 167.126 2.55926 168.485 4.81396C169.46 6.2787 169.77 8.05612 169.77 10.9115C169.77 13.9974 169.46 15.7994 168.561 17.3135C167.201 19.7163 164.557 21.14 159.986 21.14ZM164.941 11.0103C164.916 9.31514 164.707 7.89978 164.148 7.1345C163.248 5.76851 161.763 5.15958 159.12 5.15958H152.014V17.2148H158.994C161.763 17.2148 163.307 16.5812 164.173 15.2646C164.765 14.4252 164.941 12.8371 164.941 11.0103Z" fill="white" stroke="white" stroke-width="1.4277" stroke-miterlimit="10"/>
<path id="Vector_5" d="M172.914 21.14V1.26733H192.595V5.26654H177.683V9.19171H192.153V13.1662H177.683V17.1408H192.77V21.14H172.914Z" fill="white" stroke="white" stroke-width="1.4277" stroke-miterlimit="10"/>
<path id="Vector_6" d="M17.4712 1.54712H16.3787L14.4856 5.22541L15.2611 6.98639C15.2611 6.98639 16.9375 10.352 17.7798 12.0636L20.1982 16.8199H20.2149L20.782 17.9718L22.3415 21.1317H27.5204L17.4712 1.54712Z" fill="white" stroke="white" stroke-width="1.41357" stroke-miterlimit="10"/>
<path id="Vector_7" d="M11.7581 1.54712L1.26685 21.1399H6.32067L8.21376 17.4206L8.52233 16.8199H8.53067L10.9158 12.1788L13.6012 6.94524L14.4852 5.21719L14.4935 5.22541L16.3866 1.54712H11.7581Z" fill="#6D98FD" stroke="#6D98FD" stroke-width="1.41357" stroke-miterlimit="10"/>
<path id="Vector_8" d="M5.05305 30.6694V36.2321H3.51021V30.6694H1.26685V29.4104H7.31308V30.6694H5.05305Z" fill="white"/>
<path id="Vector_9" d="M16.7205 32.6362C16.5121 32.9982 16.1868 33.2121 15.8365 33.278L17.4544 36.2321H15.7531L14.4021 33.5824H12.5841V36.2321H11.0996V29.4104H14.9525C15.8365 29.4104 16.3786 29.6984 16.6705 30.1757C16.879 30.4884 16.9791 30.8833 16.9791 31.4429C16.9791 31.9614 16.879 32.3646 16.7289 32.6362H16.7205ZM15.4112 31.0232C15.2862 30.7846 15.0275 30.6694 14.6106 30.6694H12.6007V32.3811H14.7023C15.0359 32.3811 15.2944 32.2822 15.3945 32.093C15.4529 31.9614 15.4946 31.7392 15.4946 31.5664C15.4946 31.3689 15.4695 31.1384 15.4196 31.0232H15.4112Z" fill="white"/>
<path id="Vector_10" d="M22.2657 36.2321H20.7146L23.3915 29.4104H25.3014L27.8283 36.2321H26.2521L25.6682 34.6275H22.8745L22.2657 36.2321ZM24.484 31.2948L24.3256 30.7353L24.1588 31.303L23.3749 33.3932H25.2262L24.4924 31.2948H24.484Z" fill="white"/>
<path id="Vector_11" d="M35.0259 36.2321H31.5815V29.4104H34.9258C36.0349 29.4104 36.7188 29.6737 37.1357 30.1839C37.5694 30.7106 37.6862 31.3772 37.6862 32.7102C37.6862 34.1913 37.5694 34.8332 37.1774 35.3681C36.7689 35.9277 36.1266 36.2321 35.0259 36.2321ZM36.2267 32.7184C36.2267 31.9614 36.1434 31.3277 35.8932 31.0891C35.593 30.7928 35.301 30.7024 34.709 30.7024H33.0827V34.9648H34.7006C35.3094 34.9648 35.6429 34.8414 35.9182 34.5534C36.1683 34.2737 36.2267 33.5495 36.2267 32.7266V32.7184Z" fill="white"/>
<path id="Vector_12" d="M41.7979 36.2321V29.4104H47.0768V30.6941H43.2739V32.1753H46.935V33.4672H43.2739V34.9566H47.1185V36.2321H41.7979Z" fill="white"/>
<path id="Vector_13" d="M63.9814 36.2321H62.2801L61.0542 31.2701L59.7782 36.2321H58.0769L56.092 29.4104H57.7016L59.0443 34.3889L60.2368 29.4104H61.9381L63.139 34.3889L64.49 29.4104H65.9579L63.9897 36.2321H63.9814Z" fill="white"/>
<path id="Vector_14" d="M69.7019 36.2321V29.4104H71.2448V36.2321H69.7019Z" fill="white"/>
<path id="Vector_15" d="M78.8176 30.6694V36.2321H77.2747V30.6694H75.0229V29.4104H81.0692V30.6694H78.8092H78.8176Z" fill="white"/>
<path id="Vector_16" d="M89.3332 36.2321V33.4919H86.3727V36.2321H84.8633V29.4104H86.3727V32.167H89.3332V29.4104H90.8428V36.2321H89.3332Z" fill="white"/>
<path id="Vector_17" d="M106.505 35.1787C106.021 35.8699 105.146 36.3307 103.761 36.3307C102.652 36.3307 101.81 36.0839 101.243 35.516C100.676 34.9647 100.367 34.0925 100.367 32.8006C100.367 31.6403 100.642 30.7927 101.176 30.2249C101.735 29.6407 102.561 29.3032 103.77 29.3032C105.429 29.3032 106.28 29.904 106.664 30.7021C106.88 31.163 106.981 31.665 106.981 32.0106H105.438C105.438 31.6897 105.329 31.3605 105.154 31.1301C104.879 30.768 104.462 30.6116 103.736 30.6116C103.094 30.6116 102.677 30.7927 102.377 31.1218C102.06 31.4674 101.943 32.0435 101.943 32.8334C101.943 33.7386 102.127 34.2817 102.435 34.619C102.761 34.973 103.253 35.0964 103.778 35.0964C104.437 35.0964 104.837 34.8989 105.079 34.6273C105.313 34.364 105.421 34.0843 105.454 33.7057H106.989C106.981 34.0678 106.914 34.6027 106.505 35.1869V35.1787Z" fill="white"/>
<path id="Vector_18" d="M116.813 30.4057C117.213 30.9323 117.397 31.7223 117.397 32.7838C117.397 33.8948 117.18 34.6764 116.78 35.2443C116.296 35.9519 115.379 36.3304 114.019 36.3304C112.66 36.3304 111.776 35.9684 111.275 35.2607C110.85 34.6846 110.642 33.8701 110.642 32.8002C110.642 31.7881 110.825 31.0063 111.234 30.4716C111.751 29.7638 112.61 29.3113 114.011 29.3113C115.412 29.3113 116.271 29.698 116.796 30.4057H116.813ZM115.404 34.6106C115.737 34.2815 115.879 33.5655 115.879 32.8167C115.879 32.0679 115.737 31.3849 115.454 31.0805C115.153 30.7677 114.795 30.5538 114.036 30.5538C113.277 30.5538 112.935 30.7595 112.635 31.0887C112.36 31.3931 112.21 32.0926 112.21 32.825C112.21 33.5573 112.376 34.3061 112.727 34.6518C113.01 34.9315 113.377 35.1126 114.053 35.1126C114.77 35.1126 115.137 34.8987 115.42 34.6189L115.404 34.6106Z" fill="white"/>
<path id="Vector_19" d="M125.678 36.2321L122.892 31.6075V36.2321H121.449V29.4104H123.209L125.869 33.8046V29.4104H127.312V36.2321H125.678Z" fill="white"/>
<path id="Vector_20" d="M133.199 30.6941V32.1588H136.695V33.4672H133.199V36.2321H131.69V29.4104H136.886V30.6941H133.199Z" fill="white"/>
<path id="Vector_21" d="M140.882 36.2321V29.4104H142.424V36.2321H140.882Z" fill="white"/>
<path id="Vector_22" d="M150.255 36.2321H146.811V29.4104H150.155C151.264 29.4104 151.947 29.6737 152.364 30.1839C152.806 30.7106 152.915 31.3772 152.915 32.7102C152.915 34.1913 152.799 34.8332 152.406 35.3681C151.998 35.9277 151.355 36.2321 150.255 36.2321ZM151.455 32.7184C151.455 31.9614 151.372 31.3277 151.122 31.0891C150.822 30.7928 150.53 30.7024 149.937 30.7024H148.311V34.9648H149.93C150.538 34.9648 150.873 34.8414 151.148 34.5534C151.397 34.2737 151.455 33.5495 151.455 32.7266V32.7184Z" fill="white"/>
<path id="Vector_23" d="M157.027 36.2321V29.4104H162.306V30.6941H158.503V32.1753H162.164V33.4672H158.503V34.9566H162.348V36.2321H157.027Z" fill="white"/>
<path id="Vector_24" d="M170.72 36.2321L167.935 31.6075V36.2321H166.492V29.4104H168.251L170.913 33.8046V29.4104H172.355V36.2321H170.72Z" fill="white"/>
<path id="Vector_25" d="M182.513 35.1787C182.029 35.8699 181.153 36.3307 179.768 36.3307C178.659 36.3307 177.818 36.0839 177.25 35.516C176.684 34.9647 176.375 34.0925 176.375 32.8006C176.375 31.6403 176.65 30.7927 177.183 30.2249C177.742 29.6407 178.568 29.3032 179.777 29.3032C181.437 29.3032 182.287 29.904 182.671 30.7021C182.888 31.163 182.988 31.665 182.988 32.0106H181.445C181.445 31.6897 181.337 31.3605 181.161 31.1301C180.886 30.768 180.469 30.6116 179.744 30.6116C179.102 30.6116 178.685 30.7927 178.384 31.1218C178.068 31.4674 177.951 32.0435 177.951 32.8334C177.951 33.7386 178.135 34.2817 178.443 34.619C178.768 34.973 179.26 35.0964 179.786 35.0964C180.445 35.0964 180.844 34.8989 181.086 34.6273C181.321 34.364 181.428 34.0843 181.461 33.7057H182.996C182.988 34.0678 182.921 34.6027 182.513 35.1869V35.1787Z" fill="white"/>
<path id="Vector_26" d="M186.999 36.2321V29.4104H192.278V30.6941H188.475V32.1753H192.136V33.4672H188.475V34.9566H192.32V36.2321H186.999Z" fill="white"/>
<path id="Vector_27" d="M61.179 1.54712H60.0865L58.1934 5.22541L58.9689 6.98639C58.9689 6.98639 60.6452 10.352 61.4876 12.0636L63.9061 16.8199H63.9227L64.4898 17.9718L66.0494 21.1317H71.2282L61.179 1.54712Z" fill="white" stroke="white" stroke-width="1.41357" stroke-miterlimit="10"/>
<path id="Vector_28" d="M55.4664 1.54712L44.9668 21.1399H50.029L51.922 17.4206L52.2306 16.8199H52.239L54.6242 12.1788L57.3095 6.94524L58.1935 5.21719L58.2019 5.22541L60.0866 1.54712H55.4664Z" fill="#6D98FD" stroke="#6D98FD" stroke-width="1.41357" stroke-miterlimit="10"/>
<path id="Vector_29" d="M134.81 1.54712H133.718L131.824 5.22541L132.6 6.98639C132.6 6.98639 134.275 10.352 135.118 12.0636L137.537 16.8199H137.554L138.12 17.9718L139.68 21.1317H144.859L134.81 1.54712Z" fill="white" stroke="white" stroke-width="1.41357" stroke-miterlimit="10"/>
<path id="Vector_30" d="M129.089 1.54712L118.598 21.1399H123.651L125.553 17.4206L125.853 16.8199H125.87L128.246 12.1788L130.94 6.94524L131.825 5.21719V5.22541L133.718 1.54712H129.089Z" fill="#6D98FD" stroke="#6D98FD" stroke-width="1.41357" stroke-miterlimit="10"/>
</g>
<defs>
<clipPath id="clip0_517_100">
<rect width="193.888" height="36.75" fill="white"/>
</clipPath>
</defs>
</svg>
