<svg xmlns="http://www.w3.org/2000/svg"  viewBox="0 0 1512 1600" fill="none">
  <g filter="url(#filter0_f_132_349)">
    <path fill-rule="evenodd" clip-rule="evenodd" d="M858.877 1152.59C1026.28 1150.41 1220.67 1236.05 1342.05 1152.86C1463.59 1069.56 1405.02 922.124 1367.03 804.337C1338.34 715.394 1245.55 654.462 1159.66 587.372C1067.79 515.605 993.953 414.389 858.877 407.389C719.832 400.185 624.242 494.614 511.531 553.788C361.251 632.686 135.909 672.409 102.796 804.337C68.0932 942.605 193.775 1090.04 357.96 1165.66C504.353 1233.09 685.213 1154.84 858.877 1152.59Z" fill="#D9D9D9"/>
    <path fill-rule="evenodd" clip-rule="evenodd" d="M858.877 1152.59C1026.28 1150.41 1220.67 1236.05 1342.05 1152.86C1463.59 1069.56 1405.02 922.124 1367.03 804.337C1338.34 715.394 1245.55 654.462 1159.66 587.372C1067.79 515.605 993.953 414.389 858.877 407.389C719.832 400.185 624.242 494.614 511.531 553.788C361.251 632.686 135.909 672.409 102.796 804.337C68.0932 942.605 193.775 1090.04 357.96 1165.66C504.353 1233.09 685.213 1154.84 858.877 1152.59Z" fill="url(#paint0_linear_132_349)"/>
  </g>
  <defs>
    <filter id="filter0_f_132_349" x="-309.715" y="0.284546" width="2131.43" height="1599.43" filterUnits="userSpaceOnUse" color-interpolation-filters="sRGB">
      <feFlood flood-opacity="0" result="BackgroundImageFix"/>
      <feBlend mode="normal" in="SourceGraphic" in2="BackgroundImageFix" result="shape"/>
      <feGaussianBlur stdDeviation="203.358" result="effect1_foregroundBlur_132_349"/>
    </filter>
    <linearGradient id="paint0_linear_132_349" x1="721.393" y1="915.959" x2="721.393" y2="674.488" gradientUnits="userSpaceOnUse">
      <stop stop-color="#3D4365"/>
      <stop offset="1" stop-color="#0C0F21"/>
    </linearGradient>
  </defs>
</svg>
